PathFileType	4	(X/Y/Z)	..\data\2015007\dynamic\2015007_C4_03.trc
DataRate	CameraRate	NumFrames	NumMarkers	Units	OrigDataRate	OrigDataStartFrame	OrigNumFrames
100.000000	100.000000	4	52	mm	100.000000	103	166
Frame#	Time	L_IAS			L_IPS			R_IPS			R_IAS			L_FTC			L_FLE			L_FME			L_FAX			L_TTC			L_FAL			L_TAM			L_FCC			L_FM1			L_FM2			L_FM5			R_FTC			R_FLE			R_FME			R_FAX			R_TTC			R_FAL			R_TAM			R_FCC			R_FM1			R_FM2			R_FM5			CV7			TV10			SXS			SJN			L_SIA			L_SRS			L_SAA			L_SAE			L_HLE			L_HME			L_UOA			L_RSP			L_UHE			L_HM2			L_HM5			R_SIA			R_SRS			R_SAA			R_SAE			R_HLE			R_HME			R_UOA			R_RSP			R_UHE			R_HM2			R_HM5			
		X1	Y1	Z1	X2	Y2	Z2	X3	Y3	Z3	X4	Y4	Z4	X5	Y5	Z5	X6	Y6	Z6	X7	Y7	Z7	X8	Y8	Z8	X9	Y9	Z9	X10	Y10	Z10	X11	Y11	Z11	X12	Y12	Z12	X13	Y13	Z13	X14	Y14	Z14	X15	Y15	Z15	X16	Y16	Z16	X17	Y17	Z17	X18	Y18	Z18	X19	Y19	Z19	X20	Y20	Z20	X21	Y21	Z21	X22	Y22	Z22	X23	Y23	Z23	X24	Y24	Z24	X25	Y25	Z25	X26	Y26	Z26	X27	Y27	Z27	X28	Y28	Z28	X29	Y29	Z29	X30	Y30	Z30	X31	Y31	Z31	X32	Y32	Z32	X33	Y33	Z33	X34	Y34	Z34	X35	Y35	Z35	X36	Y36	Z36	X37	Y37	Z37	X38	Y38	Z38	X39	Y39	Z39	X40	Y40	Z40	X41	Y41	Z41	X42	Y42	Z42	X43	Y43	Z43	X44	Y44	Z44	X45	Y45	Z45	X46	Y46	Z46	X47	Y47	Z47	X48	Y48	Z48	X49	Y49	Z49	X50	Y50	Z50	X51	Y51	Z51	X52	Y52	Z52	

104	1.03	-46.87999725341798	895.7161254882815	76.06210327148439	-253.3352508544923	906.2930297851565	172.1854095458984	-239.7380676269532	905.1396484375002	273.231201171875	-20.32761764526371	897.8455200195315	326.2756042480469	-146.7537994384766	798.1184082031252	25.49317550659179	-196.9496307373047	430.968963623047	95.63275909423827	-202.0946655273438	420.2507934570314	217.781494140625	-226.7778625488282	377.8616027832032	90.70965576171874	-180.6246185302735	356.2526855468751	143.4676818847656	-334.1228332519532	74.1736526489258	143.4061584472656	-314.3741149902344	77.74346923828126	225.4700927734375	-385.6441650390626	31.85307121276856	195.7656707763672	-212.2005615234376	19.57849502563477	197.8158416748047	-208.9080657958985	30.88381004333497	146.9192047119141	-267.3561401367188	17.65231323242188	109.6008377075195	-99.31941223144538	793.4000244140627	394.7991943359376	53.05342102050778	451.561737060547	345.3420715332032	41.20858383178709	425.1106872558595	218.6400451660157	58.3025093078613	398.3760375976564	354.2771911621094	110.717529296875	407.0178222656251	307.4696960449219	167.5281219482422	82.60021972656251	335.3263854980469	194.788558959961	108.9123001098633	258.1960449218751	153.1451721191406	22.34750366210938	277.7156982421876	313.1978454589844	93.58409118652345	280.2229309082032	302.1619873046875	97.48298645019534	320.5003356933595	267.3692932128906	53.92255783081056	365.0381469726564	-146.2459106445313	1398.295654296875	227.32275390625	-246.6903076171876	1163.718872070313	201.3876037597657	17.45240974426267	1062.371215820313	203.5334625244141	-30.81152915954593	1314.329467773438	217.8395233154297	-243.1410522460938	1214.76904296875	118.594856262207	-201.0561523437501	1342.138061523438	116.2506637573242	-153.6123962402344	1347.718383789063	55.00896835327148	-102.9071655273438	1354.641723632813	45.15652847290038	-79.85894775390626	1050.414184570313	-51.14433288574221	-112.645133972168	1032.7265625	17.01284027099608	-109.0411529541016	1018.120544433594	-29.71770668029787	74.00563049316408	864.6093750000002	-20.46461105346679	15.41473484039308	842.1841430664065	-71.80525207519533	118.5821914672852	816.0496826171877	-31.68846130371093	37.24401092529298	785.6571044921877	-76.66234588623048	-250.5296325683595	1199.413818359375	281.7478637695312	-207.0792999267579	1322.733764648438	297.6065979003907	-156.8780670166016	1319.824340820313	372.1806030273438	-110.8460845947266	1322.173706054688	391.2913513183595	-155.3619842529298	1007.128051757813	449.084930419922	-189.6393585205079	1000.549438476563	384.7243957519532	-184.7071228027345	980.767761230469	430.379119873047	-87.7835998535157	786.3306274414065	442.8262634277345	-135.2474670410157	790.886413574219	482.3404846191407	-64.42870330810554	708.8600463867189	453.7863159179689	-136.1060638427735	721.9779663085939	495.2412719726564	
105	1.04	-35.97213745117189	894.5178222656252	76.34217071533205	-241.9209899902345	905.0600585937502	173.6546020507812	-228.0256347656251	903.787536621094	274.6070251464844	-8.384588241577191	896.2979125976565	326.8164978027344	-136.718490600586	797.1605224609377	26.1577796936035	-188.879150390625	430.2184448242189	96.09638977050781	-193.5247497558595	419.4750976562501	218.2169036865235	-219.5716857910157	377.5409851074219	91.20396423339842	-173.4266357421876	355.0665588378907	143.8688507080078	-333.1331481933594	75.97464752197267	143.2343292236328	-313.3903198242188	79.17957305908205	225.4728240966797	-385.5152587890626	34.43307495117188	195.6300964355469	-211.8548583984376	19.77586174011231	197.6453552246094	-208.7332763671876	30.9758415222168	146.7390441894531	-267.2653808593751	17.76107597351075	109.6789932250977	-87.31682586669928	791.755310058594	395.4666442871095	64.90785217285153	450.1404418945314	344.9322204589844	53.19737243652342	424.1253662109376	218.1151580810547	70.3766174316406	396.997528076172	353.6418151855469	122.5740203857422	405.8634643554689	306.6126098632813	179.7833099365234	81.83606719970705	333.8052062988282	206.5804748535157	108.1764831542969	256.5189208984376	165.0617370605469	21.59344863891602	276.3147583007813	325.2544555664062	92.67922973632814	277.7394104003907	314.4340515136719	96.6268005371094	318.101043701172	279.8698120117188	53.12953948974611	362.8103027343751	-134.9875183105469	1396.90283203125	228.1149597167969	-235.4167022705079	1162.224243164063	202.3948364257813	28.2550582885742	1060.92919921875	204.3410644531251	-19.50003433227542	1312.965209960938	218.6788940429688	-232.0293731689454	1213.276611328125	119.6610336303711	-189.924057006836	1340.671264648438	117.121452331543	-142.4744415283203	1346.059936523438	55.87461090087891	-91.75601196289064	1353.0087890625	45.92264938354491	-67.16777801513673	1048.9638671875	-50.32178115844729	-100.3887329101563	1031.1943359375	17.59889221191406	-97.30764770507815	1016.545959472656	-28.90865707397463	87.52880096435548	864.057800292969	-18.53129196166991	29.44999885559083	841.329772949219	-70.2548294067383	132.4785766601563	815.8528442382815	-29.31332206726073	51.73637771606447	784.7567138671877	-74.77947998046876	-239.2158966064454	1197.977783203125	282.7056579589844	-195.8129272460938	1321.344970703125	298.5035705566407	-145.584701538086	1318.463500976563	373.0140686035157	-99.53510284423835	1320.84033203125	392.1663208007814	-144.6828613281251	1005.910827636719	449.9222106933595	-179.1479949951173	999.3918457031252	385.6871948242189	-174.2136383056641	979.8198852539065	431.2637023925782	-79.13759613037116	784.5443115234377	444.1921386718751	-126.5042266845704	789.6896972656252	483.7914123535157	-56.63755798339851	706.7701416015626	455.1963500976564	-128.0605621337891	720.8380126953126	496.8969726562501	
106	1.05	-24.84220504760744	893.3706665039065	76.67496490478517	-230.2756652832032	904.0222778320315	175.2024230957031	-216.0781707763673	902.6295166015627	276.1057434082032	3.770219326019248	894.853698730469	327.3835449218751	-126.3799743652344	796.227233886719	26.93865203857421	-180.2001953125	429.4592590332032	96.51712799072266	-184.4387359619141	418.6382141113282	218.607894897461	-211.8190612792969	377.2541503906251	91.6458053588867	-165.6258392333985	353.8699645996094	144.1670227050781	-331.9933776855469	78.09942626953126	142.8374176025391	-312.3208923339844	80.90390777587892	225.2449035644532	-385.3380126953126	37.48859786987305	195.2637634277344	-211.5402069091798	19.94524192810059	197.4983215332032	-208.5967254638673	31.03001403808594	146.5641784667969	-267.1453857421876	17.84212875366211	109.7052688598633	-75.00637054443365	790.3106079101565	396.265350341797	76.92082214355466	448.8035583496095	344.4822692871094	65.59735107421874	423.3946838378907	217.5062561035157	82.34795379638669	395.6284484863282	352.9017944335938	134.3648071289062	404.4313964843751	305.7481994628907	189.5507049560547	80.47562408447267	332.1661682128907	216.0932769775391	106.6009826660157	254.7016601562501	174.0154418945312	20.46459770202637	274.8627014160157	334.7833862304688	90.05526733398439	275.2254638671876	324.1576843261719	94.18099975585939	315.6524047851564	289.4796142578125	51.15261459350587	360.5321350097657	-123.6593704223633	1395.632446289063	229.0116424560547	-223.969955444336	1160.802856445313	203.4875030517578	39.27346420288084	1059.684936523438	205.2384948730469	-8.089131355285673	1311.768432617188	219.6296386718751	-220.7692108154298	1211.870971679688	120.8320236206055	-178.6998291015626	1339.307861328125	118.113037109375	-131.2647552490235	1344.535034179688	56.8563117980957	-80.5368118286133	1351.52587890625	46.78392028808594	-54.76332473754884	1047.601806640625	-49.37691879272463	-88.35865783691408	1029.775634765625	18.35679817199706	-85.72396850585939	1015.067626953125	-27.98571968078615	100.5781555175782	863.4554443359377	-16.64416313171386	42.94454574584962	840.5322875976565	-68.69892883300783	145.8465881347657	815.568054199219	-27.02513504028319	65.61662292480472	783.8342895507815	-72.8682861328125	-227.7778778076173	1196.63525390625	283.7725524902344	-184.4524383544922	1320.041748046875	299.4981079101563	-134.208236694336	1317.208740234375	373.9451293945313	-88.14801788330084	1319.636596679688	393.147430419922	-133.7840423583985	1004.802062988281	450.8287658691407	-168.4472045898438	998.3249511718752	386.7295837402345	-163.496063232422	978.9714965820315	432.2221069335939	-70.17759704589851	782.9197387695315	445.5886840820314	-117.4628219604493	788.6166992187502	485.2821350097657	-48.50782394409187	704.8469238281251	456.6309509277345	-119.6622467041016	719.8305053710939	498.5816040039064	
107	1.06	-13.45594310760499	892.2792968750002	77.09095001220705	-218.393539428711	903.1721801757815	176.7970275878906	-203.8936767578126	901.6693115234377	277.6914978027344	16.13297271728512	893.5590820312502	327.9934997558594	-115.6885147094727	795.3084106445315	27.84709930419921	-170.8622131347657	428.6892089843751	96.87722015380861	-174.7994232177735	417.7350463867189	218.9412384033203	-203.4820861816407	377.0067749023438	92.02088165283202	-157.1853942871094	352.6540222167969	144.3253479003906	-330.6586914062501	80.5996780395508	142.2322845458984	-311.0809020996094	82.95144653320314	224.7828826904297	-385.0242614746095	41.10630798339844	194.70654296875	-211.300018310547	20.05685424804688	197.4032135009766	-208.536849975586	31.02064895629884	146.4221801757812	-267.0270996093751	17.91084480285645	109.6970901489258	-62.3859596252442	789.1074829101565	397.1900634765626	89.05361175537107	447.5767822265626	344.0159301757813	78.28347015380858	422.8996582031251	216.8617401123047	94.23626708984372	394.2971801757814	352.0993957519532	146.0890502929688	402.7867736816407	304.8796386718751	197.1872100830078	78.59813690185548	330.4862060546876	223.6252899169922	104.2870483398438	252.8072814941407	180.376220703125	19.04483604431153	273.4465637207032	342.1159362792969	85.88067626953126	272.682830810547	331.6879577636719	90.28911590576173	313.1639709472657	296.5966491699219	48.11006546020509	358.2283630371095	-112.2556076049805	1394.499145507813	230.011459350586	-212.3389282226563	1159.471313476563	204.6675567626953	50.55703735351561	1058.655883789063	206.2262115478516	3.424714803695653	1310.755126953125	220.6901397705079	-209.3469238281251	1210.5654296875	122.0994338989258	-167.3724822998047	1338.060180664063	119.2207946777344	-119.9704055786133	1343.159912109375	57.9471435546875	-69.23650360107423	1350.20947265625	47.73859024047852	-42.65887832641602	1046.341796875	-48.30924987792971	-76.55218505859376	1028.48486328125	19.29104995727538	-74.23289489746095	1013.69677734375	-26.95242309570314	113.1436767578125	862.8029785156252	-14.82132244110106	55.87157821655276	839.789489746094	-67.14983367919923	158.6740264892578	815.1898193359377	-24.8537197113037	78.85603332519534	782.891540527344	-70.949462890625	-216.2059326171876	1195.399047851563	284.9470825195313	-172.9882202148438	1318.838256835938	300.5882568359376	-122.7366180419923	1316.075073242188	374.9733886718751	-76.67302703857428	1318.57666015625	394.2305297851564	-122.678695678711	1003.819396972656	451.804412841797	-157.5336303710938	997.3635253906252	387.8419189453126	-152.5605010986329	978.233825683594	433.247528076172	-60.88644409179695	781.478210449219	447.0157470703126	-108.1163406372071	787.678894042969	486.8052978515626	-40.01242065429694	703.1146240234376	458.0921936035157	-110.8946685791016	718.9638061523439	500.2808837890626	
